%TF.GenerationSoftware,KiCad,Pcbnew,7.0.10*%
%TF.CreationDate,2024-02-06T12:45:22-08:00*%
%TF.ProjectId,Rocket_v1,526f636b-6574-45f7-9631-2e6b69636164,rev?*%
%TF.SameCoordinates,Original*%
%TF.FileFunction,Soldermask,Top*%
%TF.FilePolarity,Negative*%
%FSLAX46Y46*%
G04 Gerber Fmt 4.6, Leading zero omitted, Abs format (unit mm)*
G04 Created by KiCad (PCBNEW 7.0.10) date 2024-02-06 12:45:22*
%MOMM*%
%LPD*%
G01*
G04 APERTURE LIST*
%ADD10C,2.000000*%
%ADD11C,1.524000*%
%ADD12C,1.750000*%
G04 APERTURE END LIST*
D10*
%TO.C,Screw1*%
X73970000Y-38235000D03*
X78970000Y-38235000D03*
%TD*%
D11*
%TO.C,Mosfet1*%
X78700000Y-46580000D03*
X76160000Y-46580000D03*
X73620000Y-46580000D03*
%TD*%
D12*
%TO.C,HX1*%
X62110000Y-70840000D03*
X64610000Y-70840000D03*
X67110000Y-70840000D03*
X69610000Y-70840000D03*
%TD*%
%TO.C,Sdcard1*%
X59470000Y-56770000D03*
X62010000Y-56770000D03*
X64550000Y-56770000D03*
X67090000Y-56770000D03*
X69630000Y-56770000D03*
X72170000Y-56770000D03*
%TD*%
D11*
%TO.C,ESP1*%
X78740000Y-93959644D03*
X78740000Y-91421098D03*
X78740000Y-88882552D03*
X78740000Y-86344006D03*
X78740000Y-83805460D03*
X78740000Y-81266914D03*
X78740000Y-78728368D03*
X78740000Y-76189822D03*
X78740000Y-73651276D03*
X78740000Y-71112730D03*
X78740000Y-68574184D03*
X78740000Y-66035638D03*
X78740000Y-63497092D03*
X78740000Y-60958546D03*
X78740000Y-58420000D03*
X53210000Y-93959644D03*
X53210000Y-91421098D03*
X53210000Y-88882552D03*
X53210000Y-86344006D03*
X53210000Y-83805460D03*
X53210000Y-81266914D03*
X53210000Y-78728368D03*
X53210000Y-76189822D03*
X53210000Y-73651276D03*
X53210000Y-71112730D03*
X53210000Y-68574184D03*
X53210000Y-66035638D03*
X53210000Y-63497092D03*
X53210000Y-60958546D03*
X53210000Y-58420000D03*
%TD*%
M02*
