%TF.GenerationSoftware,KiCad,Pcbnew,7.0.10*%
%TF.CreationDate,2024-02-06T12:45:22-08:00*%
%TF.ProjectId,Rocket_v1,526f636b-6574-45f7-9631-2e6b69636164,rev?*%
%TF.SameCoordinates,Original*%
%TF.FileFunction,Legend,Top*%
%TF.FilePolarity,Positive*%
%FSLAX46Y46*%
G04 Gerber Fmt 4.6, Leading zero omitted, Abs format (unit mm)*
G04 Created by KiCad (PCBNEW 7.0.10) date 2024-02-06 12:45:22*
%MOMM*%
%LPD*%
G01*
G04 APERTURE LIST*
%ADD10C,0.100000*%
G04 APERTURE END LIST*
D10*
X72218646Y-35982300D02*
X72325789Y-36018014D01*
X72325789Y-36018014D02*
X72504360Y-36018014D01*
X72504360Y-36018014D02*
X72575789Y-35982300D01*
X72575789Y-35982300D02*
X72611503Y-35946585D01*
X72611503Y-35946585D02*
X72647217Y-35875157D01*
X72647217Y-35875157D02*
X72647217Y-35803728D01*
X72647217Y-35803728D02*
X72611503Y-35732300D01*
X72611503Y-35732300D02*
X72575789Y-35696585D01*
X72575789Y-35696585D02*
X72504360Y-35660871D01*
X72504360Y-35660871D02*
X72361503Y-35625157D01*
X72361503Y-35625157D02*
X72290074Y-35589442D01*
X72290074Y-35589442D02*
X72254360Y-35553728D01*
X72254360Y-35553728D02*
X72218646Y-35482300D01*
X72218646Y-35482300D02*
X72218646Y-35410871D01*
X72218646Y-35410871D02*
X72254360Y-35339442D01*
X72254360Y-35339442D02*
X72290074Y-35303728D01*
X72290074Y-35303728D02*
X72361503Y-35268014D01*
X72361503Y-35268014D02*
X72540074Y-35268014D01*
X72540074Y-35268014D02*
X72647217Y-35303728D01*
X73290075Y-35982300D02*
X73218646Y-36018014D01*
X73218646Y-36018014D02*
X73075789Y-36018014D01*
X73075789Y-36018014D02*
X73004360Y-35982300D01*
X73004360Y-35982300D02*
X72968646Y-35946585D01*
X72968646Y-35946585D02*
X72932932Y-35875157D01*
X72932932Y-35875157D02*
X72932932Y-35660871D01*
X72932932Y-35660871D02*
X72968646Y-35589442D01*
X72968646Y-35589442D02*
X73004360Y-35553728D01*
X73004360Y-35553728D02*
X73075789Y-35518014D01*
X73075789Y-35518014D02*
X73218646Y-35518014D01*
X73218646Y-35518014D02*
X73290075Y-35553728D01*
X73611503Y-36018014D02*
X73611503Y-35518014D01*
X73611503Y-35660871D02*
X73647217Y-35589442D01*
X73647217Y-35589442D02*
X73682932Y-35553728D01*
X73682932Y-35553728D02*
X73754360Y-35518014D01*
X73754360Y-35518014D02*
X73825789Y-35518014D01*
X74361503Y-35982300D02*
X74290075Y-36018014D01*
X74290075Y-36018014D02*
X74147218Y-36018014D01*
X74147218Y-36018014D02*
X74075789Y-35982300D01*
X74075789Y-35982300D02*
X74040075Y-35910871D01*
X74040075Y-35910871D02*
X74040075Y-35625157D01*
X74040075Y-35625157D02*
X74075789Y-35553728D01*
X74075789Y-35553728D02*
X74147218Y-35518014D01*
X74147218Y-35518014D02*
X74290075Y-35518014D01*
X74290075Y-35518014D02*
X74361503Y-35553728D01*
X74361503Y-35553728D02*
X74397218Y-35625157D01*
X74397218Y-35625157D02*
X74397218Y-35696585D01*
X74397218Y-35696585D02*
X74040075Y-35768014D01*
X74647217Y-35518014D02*
X74790075Y-36018014D01*
X74790075Y-36018014D02*
X74932932Y-35660871D01*
X74932932Y-35660871D02*
X75075789Y-36018014D01*
X75075789Y-36018014D02*
X75218646Y-35518014D01*
X75968646Y-35268014D02*
X76397218Y-35268014D01*
X76182932Y-36018014D02*
X76182932Y-35268014D01*
X76932932Y-35982300D02*
X76861504Y-36018014D01*
X76861504Y-36018014D02*
X76718647Y-36018014D01*
X76718647Y-36018014D02*
X76647218Y-35982300D01*
X76647218Y-35982300D02*
X76611504Y-35910871D01*
X76611504Y-35910871D02*
X76611504Y-35625157D01*
X76611504Y-35625157D02*
X76647218Y-35553728D01*
X76647218Y-35553728D02*
X76718647Y-35518014D01*
X76718647Y-35518014D02*
X76861504Y-35518014D01*
X76861504Y-35518014D02*
X76932932Y-35553728D01*
X76932932Y-35553728D02*
X76968647Y-35625157D01*
X76968647Y-35625157D02*
X76968647Y-35696585D01*
X76968647Y-35696585D02*
X76611504Y-35768014D01*
X77290075Y-36018014D02*
X77290075Y-35518014D01*
X77290075Y-35660871D02*
X77325789Y-35589442D01*
X77325789Y-35589442D02*
X77361504Y-35553728D01*
X77361504Y-35553728D02*
X77432932Y-35518014D01*
X77432932Y-35518014D02*
X77504361Y-35518014D01*
X77754361Y-36018014D02*
X77754361Y-35518014D01*
X77754361Y-35589442D02*
X77790075Y-35553728D01*
X77790075Y-35553728D02*
X77861504Y-35518014D01*
X77861504Y-35518014D02*
X77968647Y-35518014D01*
X77968647Y-35518014D02*
X78040075Y-35553728D01*
X78040075Y-35553728D02*
X78075790Y-35625157D01*
X78075790Y-35625157D02*
X78075790Y-36018014D01*
X78075790Y-35625157D02*
X78111504Y-35553728D01*
X78111504Y-35553728D02*
X78182932Y-35518014D01*
X78182932Y-35518014D02*
X78290075Y-35518014D01*
X78290075Y-35518014D02*
X78361504Y-35553728D01*
X78361504Y-35553728D02*
X78397218Y-35625157D01*
X78397218Y-35625157D02*
X78397218Y-36018014D01*
X78754361Y-36018014D02*
X78754361Y-35518014D01*
X78754361Y-35268014D02*
X78718647Y-35303728D01*
X78718647Y-35303728D02*
X78754361Y-35339442D01*
X78754361Y-35339442D02*
X78790075Y-35303728D01*
X78790075Y-35303728D02*
X78754361Y-35268014D01*
X78754361Y-35268014D02*
X78754361Y-35339442D01*
X79111504Y-35518014D02*
X79111504Y-36018014D01*
X79111504Y-35589442D02*
X79147218Y-35553728D01*
X79147218Y-35553728D02*
X79218647Y-35518014D01*
X79218647Y-35518014D02*
X79325790Y-35518014D01*
X79325790Y-35518014D02*
X79397218Y-35553728D01*
X79397218Y-35553728D02*
X79432933Y-35625157D01*
X79432933Y-35625157D02*
X79432933Y-36018014D01*
X80111504Y-36018014D02*
X80111504Y-35625157D01*
X80111504Y-35625157D02*
X80075789Y-35553728D01*
X80075789Y-35553728D02*
X80004361Y-35518014D01*
X80004361Y-35518014D02*
X79861504Y-35518014D01*
X79861504Y-35518014D02*
X79790075Y-35553728D01*
X80111504Y-35982300D02*
X80040075Y-36018014D01*
X80040075Y-36018014D02*
X79861504Y-36018014D01*
X79861504Y-36018014D02*
X79790075Y-35982300D01*
X79790075Y-35982300D02*
X79754361Y-35910871D01*
X79754361Y-35910871D02*
X79754361Y-35839442D01*
X79754361Y-35839442D02*
X79790075Y-35768014D01*
X79790075Y-35768014D02*
X79861504Y-35732300D01*
X79861504Y-35732300D02*
X80040075Y-35732300D01*
X80040075Y-35732300D02*
X80111504Y-35696585D01*
X80575789Y-36018014D02*
X80504360Y-35982300D01*
X80504360Y-35982300D02*
X80468646Y-35910871D01*
X80468646Y-35910871D02*
X80468646Y-35268014D01*
X79214800Y-45083734D02*
X79262419Y-44940877D01*
X79262419Y-44940877D02*
X79262419Y-44702782D01*
X79262419Y-44702782D02*
X79214800Y-44607544D01*
X79214800Y-44607544D02*
X79167180Y-44559925D01*
X79167180Y-44559925D02*
X79071942Y-44512306D01*
X79071942Y-44512306D02*
X78976704Y-44512306D01*
X78976704Y-44512306D02*
X78881466Y-44559925D01*
X78881466Y-44559925D02*
X78833847Y-44607544D01*
X78833847Y-44607544D02*
X78786228Y-44702782D01*
X78786228Y-44702782D02*
X78738609Y-44893258D01*
X78738609Y-44893258D02*
X78690990Y-44988496D01*
X78690990Y-44988496D02*
X78643371Y-45036115D01*
X78643371Y-45036115D02*
X78548133Y-45083734D01*
X78548133Y-45083734D02*
X78452895Y-45083734D01*
X78452895Y-45083734D02*
X78357657Y-45036115D01*
X78357657Y-45036115D02*
X78310038Y-44988496D01*
X78310038Y-44988496D02*
X78262419Y-44893258D01*
X78262419Y-44893258D02*
X78262419Y-44655163D01*
X78262419Y-44655163D02*
X78310038Y-44512306D01*
X76702419Y-45006115D02*
X75702419Y-45006115D01*
X75702419Y-45006115D02*
X75702419Y-44768020D01*
X75702419Y-44768020D02*
X75750038Y-44625163D01*
X75750038Y-44625163D02*
X75845276Y-44529925D01*
X75845276Y-44529925D02*
X75940514Y-44482306D01*
X75940514Y-44482306D02*
X76130990Y-44434687D01*
X76130990Y-44434687D02*
X76273847Y-44434687D01*
X76273847Y-44434687D02*
X76464323Y-44482306D01*
X76464323Y-44482306D02*
X76559561Y-44529925D01*
X76559561Y-44529925D02*
X76654800Y-44625163D01*
X76654800Y-44625163D02*
X76702419Y-44768020D01*
X76702419Y-44768020D02*
X76702419Y-45006115D01*
X73130038Y-44612306D02*
X73082419Y-44707544D01*
X73082419Y-44707544D02*
X73082419Y-44850401D01*
X73082419Y-44850401D02*
X73130038Y-44993258D01*
X73130038Y-44993258D02*
X73225276Y-45088496D01*
X73225276Y-45088496D02*
X73320514Y-45136115D01*
X73320514Y-45136115D02*
X73510990Y-45183734D01*
X73510990Y-45183734D02*
X73653847Y-45183734D01*
X73653847Y-45183734D02*
X73844323Y-45136115D01*
X73844323Y-45136115D02*
X73939561Y-45088496D01*
X73939561Y-45088496D02*
X74034800Y-44993258D01*
X74034800Y-44993258D02*
X74082419Y-44850401D01*
X74082419Y-44850401D02*
X74082419Y-44755163D01*
X74082419Y-44755163D02*
X74034800Y-44612306D01*
X74034800Y-44612306D02*
X73987180Y-44564687D01*
X73987180Y-44564687D02*
X73653847Y-44564687D01*
X73653847Y-44564687D02*
X73653847Y-44755163D01*
X65052419Y-68666115D02*
X64052419Y-68666115D01*
X64052419Y-68666115D02*
X64052419Y-68428020D01*
X64052419Y-68428020D02*
X64100038Y-68285163D01*
X64100038Y-68285163D02*
X64195276Y-68189925D01*
X64195276Y-68189925D02*
X64290514Y-68142306D01*
X64290514Y-68142306D02*
X64480990Y-68094687D01*
X64480990Y-68094687D02*
X64623847Y-68094687D01*
X64623847Y-68094687D02*
X64814323Y-68142306D01*
X64814323Y-68142306D02*
X64909561Y-68189925D01*
X64909561Y-68189925D02*
X65004800Y-68285163D01*
X65004800Y-68285163D02*
X65052419Y-68428020D01*
X65052419Y-68428020D02*
X65052419Y-68666115D01*
X64052419Y-67808972D02*
X64052419Y-67237544D01*
X65052419Y-67523258D02*
X64052419Y-67523258D01*
X69122419Y-69268972D02*
X70122419Y-68935639D01*
X70122419Y-68935639D02*
X69122419Y-68602306D01*
X70027180Y-67697544D02*
X70074800Y-67745163D01*
X70074800Y-67745163D02*
X70122419Y-67888020D01*
X70122419Y-67888020D02*
X70122419Y-67983258D01*
X70122419Y-67983258D02*
X70074800Y-68126115D01*
X70074800Y-68126115D02*
X69979561Y-68221353D01*
X69979561Y-68221353D02*
X69884323Y-68268972D01*
X69884323Y-68268972D02*
X69693847Y-68316591D01*
X69693847Y-68316591D02*
X69550990Y-68316591D01*
X69550990Y-68316591D02*
X69360514Y-68268972D01*
X69360514Y-68268972D02*
X69265276Y-68221353D01*
X69265276Y-68221353D02*
X69170038Y-68126115D01*
X69170038Y-68126115D02*
X69122419Y-67983258D01*
X69122419Y-67983258D02*
X69122419Y-67888020D01*
X69122419Y-67888020D02*
X69170038Y-67745163D01*
X69170038Y-67745163D02*
X69217657Y-67697544D01*
X70027180Y-66697544D02*
X70074800Y-66745163D01*
X70074800Y-66745163D02*
X70122419Y-66888020D01*
X70122419Y-66888020D02*
X70122419Y-66983258D01*
X70122419Y-66983258D02*
X70074800Y-67126115D01*
X70074800Y-67126115D02*
X69979561Y-67221353D01*
X69979561Y-67221353D02*
X69884323Y-67268972D01*
X69884323Y-67268972D02*
X69693847Y-67316591D01*
X69693847Y-67316591D02*
X69550990Y-67316591D01*
X69550990Y-67316591D02*
X69360514Y-67268972D01*
X69360514Y-67268972D02*
X69265276Y-67221353D01*
X69265276Y-67221353D02*
X69170038Y-67126115D01*
X69170038Y-67126115D02*
X69122419Y-66983258D01*
X69122419Y-66983258D02*
X69122419Y-66888020D01*
X69122419Y-66888020D02*
X69170038Y-66745163D01*
X69170038Y-66745163D02*
X69217657Y-66697544D01*
X67564800Y-69263734D02*
X67612419Y-69120877D01*
X67612419Y-69120877D02*
X67612419Y-68882782D01*
X67612419Y-68882782D02*
X67564800Y-68787544D01*
X67564800Y-68787544D02*
X67517180Y-68739925D01*
X67517180Y-68739925D02*
X67421942Y-68692306D01*
X67421942Y-68692306D02*
X67326704Y-68692306D01*
X67326704Y-68692306D02*
X67231466Y-68739925D01*
X67231466Y-68739925D02*
X67183847Y-68787544D01*
X67183847Y-68787544D02*
X67136228Y-68882782D01*
X67136228Y-68882782D02*
X67088609Y-69073258D01*
X67088609Y-69073258D02*
X67040990Y-69168496D01*
X67040990Y-69168496D02*
X66993371Y-69216115D01*
X66993371Y-69216115D02*
X66898133Y-69263734D01*
X66898133Y-69263734D02*
X66802895Y-69263734D01*
X66802895Y-69263734D02*
X66707657Y-69216115D01*
X66707657Y-69216115D02*
X66660038Y-69168496D01*
X66660038Y-69168496D02*
X66612419Y-69073258D01*
X66612419Y-69073258D02*
X66612419Y-68835163D01*
X66612419Y-68835163D02*
X66660038Y-68692306D01*
X67517180Y-67692306D02*
X67564800Y-67739925D01*
X67564800Y-67739925D02*
X67612419Y-67882782D01*
X67612419Y-67882782D02*
X67612419Y-67978020D01*
X67612419Y-67978020D02*
X67564800Y-68120877D01*
X67564800Y-68120877D02*
X67469561Y-68216115D01*
X67469561Y-68216115D02*
X67374323Y-68263734D01*
X67374323Y-68263734D02*
X67183847Y-68311353D01*
X67183847Y-68311353D02*
X67040990Y-68311353D01*
X67040990Y-68311353D02*
X66850514Y-68263734D01*
X66850514Y-68263734D02*
X66755276Y-68216115D01*
X66755276Y-68216115D02*
X66660038Y-68120877D01*
X66660038Y-68120877D02*
X66612419Y-67978020D01*
X66612419Y-67978020D02*
X66612419Y-67882782D01*
X66612419Y-67882782D02*
X66660038Y-67739925D01*
X66660038Y-67739925D02*
X66707657Y-67692306D01*
X67612419Y-67263734D02*
X66612419Y-67263734D01*
X67612419Y-66692306D02*
X67040990Y-67120877D01*
X66612419Y-66692306D02*
X67183847Y-67263734D01*
X66582419Y-84866115D02*
X65582419Y-84866115D01*
X66058609Y-84866115D02*
X66058609Y-84294687D01*
X66582419Y-84294687D02*
X65582419Y-84294687D01*
X65582419Y-83913734D02*
X66582419Y-83247068D01*
X65582419Y-83247068D02*
X66582419Y-83913734D01*
X65582419Y-82961353D02*
X65582419Y-82294687D01*
X65582419Y-82294687D02*
X66582419Y-82723258D01*
X66582419Y-81389925D02*
X66582419Y-81961353D01*
X66582419Y-81675639D02*
X65582419Y-81675639D01*
X65582419Y-81675639D02*
X65725276Y-81770877D01*
X65725276Y-81770877D02*
X65820514Y-81866115D01*
X65820514Y-81866115D02*
X65868133Y-81961353D01*
X66582419Y-80437544D02*
X66582419Y-81008972D01*
X66582419Y-80723258D02*
X65582419Y-80723258D01*
X65582419Y-80723258D02*
X65725276Y-80818496D01*
X65725276Y-80818496D02*
X65820514Y-80913734D01*
X65820514Y-80913734D02*
X65868133Y-81008972D01*
X61680038Y-68742306D02*
X61632419Y-68837544D01*
X61632419Y-68837544D02*
X61632419Y-68980401D01*
X61632419Y-68980401D02*
X61680038Y-69123258D01*
X61680038Y-69123258D02*
X61775276Y-69218496D01*
X61775276Y-69218496D02*
X61870514Y-69266115D01*
X61870514Y-69266115D02*
X62060990Y-69313734D01*
X62060990Y-69313734D02*
X62203847Y-69313734D01*
X62203847Y-69313734D02*
X62394323Y-69266115D01*
X62394323Y-69266115D02*
X62489561Y-69218496D01*
X62489561Y-69218496D02*
X62584800Y-69123258D01*
X62584800Y-69123258D02*
X62632419Y-68980401D01*
X62632419Y-68980401D02*
X62632419Y-68885163D01*
X62632419Y-68885163D02*
X62584800Y-68742306D01*
X62584800Y-68742306D02*
X62537180Y-68694687D01*
X62537180Y-68694687D02*
X62203847Y-68694687D01*
X62203847Y-68694687D02*
X62203847Y-68885163D01*
X62632419Y-68266115D02*
X61632419Y-68266115D01*
X61632419Y-68266115D02*
X62632419Y-67694687D01*
X62632419Y-67694687D02*
X61632419Y-67694687D01*
X62632419Y-67218496D02*
X61632419Y-67218496D01*
X61632419Y-67218496D02*
X61632419Y-66980401D01*
X61632419Y-66980401D02*
X61680038Y-66837544D01*
X61680038Y-66837544D02*
X61775276Y-66742306D01*
X61775276Y-66742306D02*
X61870514Y-66694687D01*
X61870514Y-66694687D02*
X62060990Y-66647068D01*
X62060990Y-66647068D02*
X62203847Y-66647068D01*
X62203847Y-66647068D02*
X62394323Y-66694687D01*
X62394323Y-66694687D02*
X62489561Y-66742306D01*
X62489561Y-66742306D02*
X62584800Y-66837544D01*
X62584800Y-66837544D02*
X62632419Y-66980401D01*
X62632419Y-66980401D02*
X62632419Y-67218496D01*
X71524800Y-76483734D02*
X71572419Y-76340877D01*
X71572419Y-76340877D02*
X71572419Y-76102782D01*
X71572419Y-76102782D02*
X71524800Y-76007544D01*
X71524800Y-76007544D02*
X71477180Y-75959925D01*
X71477180Y-75959925D02*
X71381942Y-75912306D01*
X71381942Y-75912306D02*
X71286704Y-75912306D01*
X71286704Y-75912306D02*
X71191466Y-75959925D01*
X71191466Y-75959925D02*
X71143847Y-76007544D01*
X71143847Y-76007544D02*
X71096228Y-76102782D01*
X71096228Y-76102782D02*
X71048609Y-76293258D01*
X71048609Y-76293258D02*
X71000990Y-76388496D01*
X71000990Y-76388496D02*
X70953371Y-76436115D01*
X70953371Y-76436115D02*
X70858133Y-76483734D01*
X70858133Y-76483734D02*
X70762895Y-76483734D01*
X70762895Y-76483734D02*
X70667657Y-76436115D01*
X70667657Y-76436115D02*
X70620038Y-76388496D01*
X70620038Y-76388496D02*
X70572419Y-76293258D01*
X70572419Y-76293258D02*
X70572419Y-76055163D01*
X70572419Y-76055163D02*
X70620038Y-75912306D01*
X71572419Y-75483734D02*
X70572419Y-75483734D01*
X70572419Y-75483734D02*
X70572419Y-75245639D01*
X70572419Y-75245639D02*
X70620038Y-75102782D01*
X70620038Y-75102782D02*
X70715276Y-75007544D01*
X70715276Y-75007544D02*
X70810514Y-74959925D01*
X70810514Y-74959925D02*
X71000990Y-74912306D01*
X71000990Y-74912306D02*
X71143847Y-74912306D01*
X71143847Y-74912306D02*
X71334323Y-74959925D01*
X71334323Y-74959925D02*
X71429561Y-75007544D01*
X71429561Y-75007544D02*
X71524800Y-75102782D01*
X71524800Y-75102782D02*
X71572419Y-75245639D01*
X71572419Y-75245639D02*
X71572419Y-75483734D01*
X71477180Y-73150401D02*
X71524800Y-73198020D01*
X71524800Y-73198020D02*
X71572419Y-73340877D01*
X71572419Y-73340877D02*
X71572419Y-73436115D01*
X71572419Y-73436115D02*
X71524800Y-73578972D01*
X71524800Y-73578972D02*
X71429561Y-73674210D01*
X71429561Y-73674210D02*
X71334323Y-73721829D01*
X71334323Y-73721829D02*
X71143847Y-73769448D01*
X71143847Y-73769448D02*
X71000990Y-73769448D01*
X71000990Y-73769448D02*
X70810514Y-73721829D01*
X70810514Y-73721829D02*
X70715276Y-73674210D01*
X70715276Y-73674210D02*
X70620038Y-73578972D01*
X70620038Y-73578972D02*
X70572419Y-73436115D01*
X70572419Y-73436115D02*
X70572419Y-73340877D01*
X70572419Y-73340877D02*
X70620038Y-73198020D01*
X70620038Y-73198020D02*
X70667657Y-73150401D01*
X71572419Y-72293258D02*
X71048609Y-72293258D01*
X71048609Y-72293258D02*
X70953371Y-72340877D01*
X70953371Y-72340877D02*
X70905752Y-72436115D01*
X70905752Y-72436115D02*
X70905752Y-72626591D01*
X70905752Y-72626591D02*
X70953371Y-72721829D01*
X71524800Y-72293258D02*
X71572419Y-72388496D01*
X71572419Y-72388496D02*
X71572419Y-72626591D01*
X71572419Y-72626591D02*
X71524800Y-72721829D01*
X71524800Y-72721829D02*
X71429561Y-72769448D01*
X71429561Y-72769448D02*
X71334323Y-72769448D01*
X71334323Y-72769448D02*
X71239085Y-72721829D01*
X71239085Y-72721829D02*
X71191466Y-72626591D01*
X71191466Y-72626591D02*
X71191466Y-72388496D01*
X71191466Y-72388496D02*
X71143847Y-72293258D01*
X71572419Y-71817067D02*
X70905752Y-71817067D01*
X71096228Y-71817067D02*
X71000990Y-71769448D01*
X71000990Y-71769448D02*
X70953371Y-71721829D01*
X70953371Y-71721829D02*
X70905752Y-71626591D01*
X70905752Y-71626591D02*
X70905752Y-71531353D01*
X71572419Y-70769448D02*
X70572419Y-70769448D01*
X71524800Y-70769448D02*
X71572419Y-70864686D01*
X71572419Y-70864686D02*
X71572419Y-71055162D01*
X71572419Y-71055162D02*
X71524800Y-71150400D01*
X71524800Y-71150400D02*
X71477180Y-71198019D01*
X71477180Y-71198019D02*
X71381942Y-71245638D01*
X71381942Y-71245638D02*
X71096228Y-71245638D01*
X71096228Y-71245638D02*
X71000990Y-71198019D01*
X71000990Y-71198019D02*
X70953371Y-71150400D01*
X70953371Y-71150400D02*
X70905752Y-71055162D01*
X70905752Y-71055162D02*
X70905752Y-70864686D01*
X70905752Y-70864686D02*
X70953371Y-70769448D01*
%TO.C,Screw1*%
X71450000Y-33245000D02*
X81450000Y-33245000D01*
X81450000Y-33245000D02*
X81450000Y-43245000D01*
X81450000Y-43245000D02*
X71450000Y-43245000D01*
X71450000Y-43245000D02*
X71450000Y-33245000D01*
%TO.C,HX1*%
X55320000Y-100090000D02*
X76390000Y-100090000D01*
X76390000Y-100090000D02*
X76390000Y-66090000D01*
X76390000Y-66090000D02*
X55320000Y-66090000D01*
X55320000Y-66090000D02*
X55320000Y-100090000D01*
X58160000Y-97620000D02*
X68360000Y-97620000D01*
X68360000Y-97620000D02*
X68360000Y-95030000D01*
X68360000Y-95030000D02*
X58160000Y-95030000D01*
X58160000Y-95030000D02*
X58160000Y-97620000D01*
%TO.C,Sdcard1*%
X54140000Y-95040000D02*
X77850000Y-95040000D01*
X77850000Y-95040000D02*
X77850000Y-53300000D01*
X77850000Y-53300000D02*
X54140000Y-53300000D01*
X54140000Y-53300000D02*
X54140000Y-95040000D01*
X57910000Y-95040000D02*
X72910000Y-95040000D01*
X72910000Y-95040000D02*
X72910000Y-80040000D01*
X72910000Y-80040000D02*
X57910000Y-80040000D01*
X57910000Y-80040000D02*
X57910000Y-95040000D01*
%TD*%
M02*
